<?xml version="1.0" encoding="utf-8"?>
<!-- Generator: Adobe Illustrator 19.1.0, SVG Export Plug-In . SVG Version: 6.00 Build 0)  -->
<svg version="1.1" id="Layer_1" xmlns="http://www.w3.org/2000/svg" xmlns:xlink="http://www.w3.org/1999/xlink" x="0px" y="0px"
	 viewBox="0 0 288 432" style="enable-background:new 0 0 288 432;" xml:space="preserve">
<style type="text/css">
	.st0{fill:#14487E;}
	.st1{fill:#1072BA;}
</style>
<path id="XMLID_22_" class="st0" d="M173.1,193H170v3h3.1c1.9,0,3.9,1.6,3.9,3.5v9c0,1.9-2,3.5-3.9,3.5H145v-6h-3v6h-27.1
	c-1.9,0-3.9-1.6-3.9-3.5v-9c0-1.9,2-3.5,3.9-3.5h3.1v-3h-3.1c-3.6,0-6.9,2.9-6.9,6.5v9c0,3.6,3.4,6.5,6.9,6.5h58.1
	c3.6,0,6.9-2.9,6.9-6.5v-9C180,195.9,176.6,193,173.1,193z"/>
<path id="XMLID_32_" class="st1" d="M178.6,154h-69.1C87.1,154,71,172.1,71,194.5v19c0,22.3,16.1,40.5,38.4,40.5h3.6v-3h-3.6
	C88.8,251,74,234.2,74,213.5v-19c0-20.7,14.8-37.5,35.4-37.5h69.1c20.7,0,35.4,16.8,35.4,37.5v19c0,20.7-14.8,37.5-35.4,37.5H129v0
	l-21,23.8l2.2,2l20.1-22.8h48.2c22.3,0,38.4-18.1,38.4-40.5v-19C217,172.1,200.9,154,178.6,154z"/>
<path id="XMLID_30_" class="st0" d="M190.7,189.9c-1.3-6.1-6.5-10.9-12.9-10.9H145h-3h-24h-1c-1,0-2,0-3,0h-2h-1.8
	c-7.4,0-13.2,6.3-13.2,13.8v3.2h3v-3.2c0-5.8,4.5-10.8,10.2-10.8H142v17h3v-17h32.8c4.9,0,8.8,3.5,9.9,8c-2.4,0.8-4.1,3-4.1,5.6
	c0,3.3,2.7,5.9,5.9,5.9s5.9-2.7,5.9-5.9C195.4,192.8,193.4,190.4,190.7,189.9z M189.5,198.6c-1.6,0-2.9-1.3-2.9-2.9s1.3-2.9,2.9-2.9
	s2.9,1.3,2.9,2.9S191.1,198.6,189.5,198.6z"/>
<path id="XMLID_31_" class="st0" d="M128.5,221.8c-2.7,0-5,1.8-5.7,4.2H117c0,1.1,0,1.9,0,3h5.7c0.6,2.6,3,4.6,5.8,4.6
	c3.3,0,5.9-2.7,5.9-5.9S131.8,221.8,128.5,221.8z M128.5,230.6c-1.6,0-2.9-1.3-2.9-2.9s1.3-2.9,2.9-2.9s2.9,1.3,2.9,2.9
	S130.1,230.6,128.5,230.6z"/>
<path id="XMLID_34_" class="st1" d="M108.5,239C96.1,239,86,228.7,86,216.3V213h11v2.2c0,6.3,4,11.8,10,13.3v-3.1
	c-4-1.5-7-5.5-7-10.2V210H86v-18.3c0-9.1,5.3-16.9,13.1-20.5c1,2,3,3.4,5.4,3.4c3.3,0,5.9-2.7,5.9-5.9s-2.7-5.9-5.9-5.9
	c-3.1,0-5.7,2.5-5.9,5.5c-9,3.9-15.6,12.9-15.6,23.4v24.6c0,14.1,11.4,25.7,25.5,25.7h5.5c0-1,0-2.3,0-3H108.5z M104.5,165.8
	c1.6,0,2.9,1.3,2.9,2.9s-1.3,2.9-2.9,2.9s-2.9-1.3-2.9-2.9S102.9,165.8,104.5,165.8z"/>
<path id="XMLID_20_" class="st0" d="M179.5,166H120v3h59.5c12.4,0,22.5,10.3,22.5,22.7V209v1c0,1.1,0,1.9,0,3v1v2.3
	c0,12.4-10.1,22.7-22.5,22.7H117v-9v-1c0-1.1,0-1.9,0-3h-3v3v10c0,0.7,0,2,0,3h65.5c14.1,0,25.5-11.6,25.5-25.7v-24.6
	C205,177.6,193.6,166,179.5,166z"/>
<path id="XMLID_19_" class="st1" d="M188,210v3v2.2c0,5.8-4.5,10.8-10.2,10.8H141v3h36.8c7.4,0,13.2-6.3,13.2-13.8V213h11
	c0-1.1,0-1.9,0-3H188z"/>
</svg>
